<svg width="33" height="32" viewBox="0 0 33 32" fill="none" xmlns="http://www.w3.org/2000/svg">
<path d="M16.3397 4.00897L16.5 4C17.2051 4 17.7863 4.51472 17.8658 5.17784L17.875 5.33333V14.6667H27.5C28.2051 14.6667 28.7863 15.1813 28.8658 15.8445L28.875 16C28.875 16.6837 28.3442 17.2473 27.6603 17.3244L27.5 17.3333H17.875V26.6667C17.875 27.3504 17.3442 27.914 16.6603 27.9911L16.5 28C15.7949 28 15.2137 27.4853 15.1342 26.8221L15.125 26.6667V17.3333H5.5C4.79485 17.3333 4.21367 16.8187 4.13425 16.1555L4.125 16C4.125 15.3163 4.6558 14.7527 5.33965 14.6756L5.5 14.6667H15.125V5.33333C15.125 4.64955 15.6558 4.08599 16.3397 4.00897Z" fill="white"/>
<path d="M12.7286 0C10.906 0 9.42857 1.2536 9.42857 2.8V8H3.3C1.47746 8 0 9.2536 0 10.8V17.2C0 18.7464 1.47746 20 3.3 20H9.42857V25.2C9.42857 26.7464 10.906 28 12.7286 28H20.2714C22.094 28 23.5714 26.7464 23.5714 25.2V20H29.7C31.5225 20 33 18.7464 33 17.2V10.8C33 9.2536 31.5225 8 29.7 8H23.5714V2.8C23.5714 1.2536 22.094 0 20.2714 0H12.7286Z" fill="#AB9FE4"/>
<path d="M16.2147 2.00897L16.375 2C17.0801 2 17.6613 2.51472 17.7408 3.17784L17.75 3.33333V12.6667H27.375C28.0801 12.6667 28.6613 13.1813 28.7408 13.8445L28.75 14C28.75 14.6837 28.2192 15.2473 27.5353 15.3244L27.375 15.3333H17.75V24.6667C17.75 25.3504 17.2193 25.914 16.5353 25.9911L16.375 26C15.6699 26 15.0887 25.4853 15.0092 24.8221L15 24.6667V15.3333H5.375C4.66985 15.3333 4.08867 14.8187 4.00925 14.1555L4 14C4 13.3163 4.5308 12.7527 5.21465 12.6756L5.375 12.6667H15V3.33333C15 2.64955 15.5307 2.08599 16.2147 2.00897Z" fill="white"/>
</svg>
